<mxfile host="app.diagrams.net" modified="2023-12-03T18:40:31.915Z" agent="Mozilla/5.0 (Macintosh; Intel Mac OS X 10_15_7) AppleWebKit/537.36 (KHTML, like Gecko) Chrome/119.0.0.0 Safari/537.36 Edg/119.0.0.0" etag="1diKSWkQj3f7uHPrXFu9" version="22.1.5" type="device">
  <diagram name="Page-1" id="vDSgfku3IQmJQA1UnzC8">
    <mxGraphModel dx="1038" dy="811" grid="1" gridSize="10" guides="1" tooltips="1" connect="1" arrows="1" fold="1" page="1" pageScale="1" pageWidth="850" pageHeight="1100" math="0" shadow="0">
      <root>
        <mxCell id="0" />
        <mxCell id="1" parent="0" />
        <mxCell id="8cZbcVuUKcTgIdIub9LN-6" style="edgeStyle=orthogonalEdgeStyle;rounded=0;orthogonalLoop=1;jettySize=auto;html=1;" edge="1" parent="1" source="8cZbcVuUKcTgIdIub9LN-1" target="8cZbcVuUKcTgIdIub9LN-2">
          <mxGeometry relative="1" as="geometry" />
        </mxCell>
        <mxCell id="8cZbcVuUKcTgIdIub9LN-7" style="edgeStyle=orthogonalEdgeStyle;rounded=0;orthogonalLoop=1;jettySize=auto;html=1;entryX=0.5;entryY=0;entryDx=0;entryDy=0;" edge="1" parent="1" source="8cZbcVuUKcTgIdIub9LN-1" target="8cZbcVuUKcTgIdIub9LN-3">
          <mxGeometry relative="1" as="geometry" />
        </mxCell>
        <mxCell id="8cZbcVuUKcTgIdIub9LN-1" value="Chất liệu" style="ellipse;whiteSpace=wrap;html=1;fillColor=#f8cecc;strokeColor=#b85450;" vertex="1" parent="1">
          <mxGeometry x="365" y="80" width="120" height="80" as="geometry" />
        </mxCell>
        <mxCell id="8cZbcVuUKcTgIdIub9LN-2" value="" style="ellipse;whiteSpace=wrap;html=1;fillColor=#d5e8d4;strokeColor=#82b366;" vertex="1" parent="1">
          <mxGeometry x="120" y="200" width="120" height="80" as="geometry" />
        </mxCell>
        <mxCell id="8cZbcVuUKcTgIdIub9LN-3" value="" style="ellipse;whiteSpace=wrap;html=1;fillColor=#d5e8d4;strokeColor=#82b366;" vertex="1" parent="1">
          <mxGeometry x="620" y="190" width="120" height="80" as="geometry" />
        </mxCell>
        <mxCell id="8cZbcVuUKcTgIdIub9LN-8" value="Nhựa PP" style="text;html=1;align=center;verticalAlign=middle;resizable=0;points=[];autosize=1;strokeColor=none;fillColor=none;" vertex="1" parent="1">
          <mxGeometry x="200" y="90" width="70" height="30" as="geometry" />
        </mxCell>
        <mxCell id="8cZbcVuUKcTgIdIub9LN-9" value="Cao su" style="text;html=1;align=center;verticalAlign=middle;resizable=0;points=[];autosize=1;strokeColor=none;fillColor=none;" vertex="1" parent="1">
          <mxGeometry x="590" y="90" width="60" height="30" as="geometry" />
        </mxCell>
      </root>
    </mxGraphModel>
  </diagram>
</mxfile>
